<?xml version="1.0" encoding="UTF-8" standalone="no"?>
<!-- Created with Inkscape (http://www.inkscape.org/) -->

<svg
   xmlns:dc="http://purl.org/dc/elements/1.1/"
   xmlns:cc="http://creativecommons.org/ns#"
   xmlns:rdf="http://www.w3.org/1999/02/22-rdf-syntax-ns#"
   xmlns:svg="http://www.w3.org/2000/svg"
   xmlns="http://www.w3.org/2000/svg"
   xmlns:sodipodi="http://sodipodi.sourceforge.net/DTD/sodipodi-0.dtd"
   xmlns:inkscape="http://www.inkscape.org/namespaces/inkscape"
   version="1.1"
   id="svg1197"
   xml:space="preserve"
   width="800"
   height="800"
   viewBox="0 0 800 800"
   sodipodi:docname="black-crow-clip-art-publicdomainvectors.org.svg"
   inkscape:version="0.92.4 (5da689c313, 2019-01-14)"><metadata
     id="metadata1203"><rdf:RDF><cc:Work
         rdf:about=""><dc:format>image/svg+xml</dc:format><dc:type
           rdf:resource="http://purl.org/dc/dcmitype/StillImage" /><dc:title></dc:title></cc:Work></rdf:RDF></metadata><defs
     id="defs1201"><clipPath
       clipPathUnits="userSpaceOnUse"
       id="clipPath1213"><path
         d="M 0,600 H 600 V 0 H 0 Z"
         id="path1211"
         inkscape:connector-curvature="0" /></clipPath></defs><sodipodi:namedview
     pagecolor="#ffffff"
     bordercolor="#666666"
     borderopacity="1"
     objecttolerance="10"
     gridtolerance="10"
     guidetolerance="10"
     inkscape:pageopacity="0"
     inkscape:pageshadow="2"
     inkscape:window-width="1920"
     inkscape:window-height="1018"
     id="namedview1199"
     showgrid="false"
     inkscape:zoom="1.06125"
     inkscape:cx="400"
     inkscape:cy="400"
     inkscape:window-x="-8"
     inkscape:window-y="-8"
     inkscape:window-maximized="1"
     inkscape:current-layer="g1205" /><g
     id="g1205"
     inkscape:groupmode="layer"
     inkscape:label="black-crow-clip-art-publicdomainvectors.org"
     transform="matrix(1.3333333,0,0,-1.3333333,0,800)"><g
       id="g1207"><g
         id="g1209"
         clip-path="url(#clipPath1213)"><path
           d="m 494.79,469.615 c 0.232,-0.748 0.541,-1.415 0.967,-1.911 0.207,-0.251 0.433,-0.481 0.666,-0.66 0.234,-0.179 0.465,-0.327 0.668,-0.442 0.408,-0.217 0.683,-0.349 0.683,-0.349 0,0 -0.066,-0.027 -0.193,-0.076 -0.127,-0.035 -0.32,-0.135 -0.574,-0.166 -0.256,-0.042 -0.582,-0.095 -0.957,-0.052 -0.379,0.025 -0.819,0.112 -1.27,0.305 -0.451,0.191 -0.91,0.485 -1.326,0.871 -0.422,0.384 -0.781,0.859 -1.088,1.385 -0.285,0.529 -0.539,1.105 -0.678,1.71 -0.154,0.603 -0.232,1.229 -0.238,1.855 -0.013,1.25 0.283,2.508 0.865,3.577 0.567,1.072 1.498,1.926 2.452,2.283 0.234,0.091 0.474,0.145 0.691,0.193 0.229,0.019 0.436,0.04 0.631,0.041 0.385,-0.007 0.715,-0.083 0.973,-0.171 0.261,-0.06 0.406,-0.196 0.533,-0.247 0.117,-0.069 0.179,-0.106 0.179,-0.106 0,0 -0.068,-0.022 -0.197,-0.065 -0.121,-0.044 -0.338,-0.078 -0.541,-0.175 -0.209,-0.075 -0.437,-0.21 -0.687,-0.348 -0.239,-0.16 -0.469,-0.36 -0.674,-0.596 -0.819,-0.915 -1.246,-2.61 -1.225,-4.363 -0.004,-0.871 0.127,-1.732 0.34,-2.493 M 294.416,198.679 c 6.379,2.021 16.767,5.318 27.158,8.613 l 1.567,0.498 0.392,0.123 0.098,0.031 0.049,0.016 c -0.019,-0.004 0.077,0.019 -0.037,-0.008 l 0.024,0.008 0.198,0.057 0.789,0.222 c 0.852,0.196 1.785,0.324 2.732,0.305 0.939,-0.035 1.88,-0.188 2.803,-0.443 0.923,-0.264 1.821,-0.639 2.693,-1.063 0.721,-0.359 1.414,-0.766 2.092,-1.187 1.284,-2.161 2.429,-4.291 3.405,-6.372 l -2.426,-5.48 -1.644,0.158 c -1.239,0.114 -2.477,0.209 -3.716,0.293 -2.241,0.149 -4.487,0.24 -6.736,0.268 -1.685,0.306 -3.382,0.594 -5.085,0.859 -8.56,1.317 -17.133,2.303 -23.568,3.018 -0.267,0.029 -0.527,0.056 -0.788,0.084 M 140.028,161.907 c -1.777,-4.349 -3.554,-8.699 -5.302,-12.982 -1.741,-4.285 -3.525,-8.475 -5.211,-12.543 -1.717,-4.059 -3.375,-7.983 -4.95,-11.701 -1.571,-3.721 -3.096,-7.223 -4.503,-10.455 -2.797,-6.471 -5.25,-11.817 -6.911,-15.58 -0.828,-1.883 -1.526,-3.342 -1.982,-4.346 -0.462,-1.002 -0.708,-1.535 -0.708,-1.535 0,0 0.194,0.554 0.558,1.595 0.371,1.039 0.882,2.575 1.595,4.504 1.422,3.86 3.373,9.407 5.858,16.004 1.235,3.303 2.571,6.881 4.026,10.649 1.454,3.767 2.987,7.742 4.573,11.851 1.616,4.1 3.242,8.352 4.97,12.643 1.597,3.988 3.216,8.039 4.836,12.09 l 0.372,0.931 c 1.777,4.35 3.555,8.699 5.303,12.983 1.719,4.25 3.49,8.4 5.164,12.437 0.013,0.035 0.03,0.072 0.045,0.108 3.399,8.128 6.631,15.693 9.451,22.156 0.784,1.812 1.537,3.525 2.257,5.154 1.848,4.178 3.46,7.715 4.655,10.424 0.83,1.883 1.527,3.342 1.984,4.346 0.461,1.002 0.707,1.535 0.707,1.535 0,0 -0.192,-0.555 -0.556,-1.596 -0.369,-1.039 -0.882,-2.574 -1.594,-4.504 -0.667,-1.81 -1.454,-4.006 -2.353,-6.494 -1.019,-2.814 -2.183,-6.01 -3.502,-9.512 -0.5,-1.34 -1.024,-2.736 -1.561,-4.162 -2.107,-5.597 -4.484,-11.795 -7.039,-18.338 -1.616,-4.097 -3.238,-8.351 -4.973,-12.64 -0.002,-0.004 -0.002,-0.006 -0.004,-0.01 -1.716,-4.291 -3.461,-8.65 -5.205,-13.012 M 109.782,149.47 c -2.717,-4.705 -5.388,-9.334 -7.972,-13.817 -2.612,-4.466 -5.135,-8.785 -7.528,-12.879 -2.417,-4.082 -4.702,-7.941 -6.81,-11.502 -4.227,-7.121 -7.862,-12.99 -10.352,-17.128 -1.245,-2.071 -2.267,-3.67 -2.944,-4.774 -0.684,-1.099 -1.048,-1.685 -1.048,-1.685 0,0 0.314,0.615 0.907,1.765 0.597,1.149 1.444,2.848 2.579,4.981 2.268,4.265 5.433,10.4 9.365,17.685 1.97,3.641 4.104,7.584 6.361,11.758 2.282,4.158 4.686,8.543 7.177,13.078 2.481,4.469 5.046,9.086 7.653,13.776 0.031,0.054 0.061,0.111 0.095,0.168 2.661,4.736 5.365,9.546 8.069,14.357 2.733,4.793 5.47,9.586 8.16,14.305 2.677,4.726 5.389,9.334 7.972,13.818 5.19,8.949 10.09,17.275 14.338,24.381 4.224,7.121 7.861,12.988 10.352,17.127 1.245,2.068 2.267,3.67 2.945,4.773 0.684,1.1 1.048,1.686 1.048,1.686 0,0 -0.315,-0.615 -0.906,-1.768 -0.597,-1.146 -1.445,-2.847 -2.579,-4.978 -2.268,-4.266 -5.429,-10.403 -9.362,-17.69 -3.91,-7.297 -8.53,-15.779 -13.537,-24.834 -2.517,-4.519 -5.075,-9.217 -7.75,-13.943 -2.662,-4.734 -5.368,-9.545 -8.073,-14.356 -0.129,-0.224 -0.255,-0.451 -0.384,-0.675 -2.607,-4.567 -5.211,-9.133 -7.776,-13.629 m -26.315,5.304 c -3.527,-4.572 -6.998,-9.072 -10.357,-13.425 -3.381,-4.338 -6.649,-8.532 -9.748,-12.508 -3.121,-3.959 -6.072,-7.701 -8.795,-11.158 -5.455,-6.905 -10.104,-12.582 -13.309,-16.592 -1.602,-2.006 -2.902,-3.551 -3.769,-4.619 -0.874,-1.063 -1.34,-1.629 -1.34,-1.629 0,0 0.421,0.599 1.21,1.726 0.795,1.123 1.934,2.791 3.436,4.873 3.001,4.164 7.22,10.168 12.406,17.278 2.596,3.552 5.409,7.4 8.384,11.47 2.997,4.055 6.158,8.329 9.428,12.752 3.291,4.405 6.693,8.957 10.149,13.582 3.478,4.61 7.01,9.291 10.544,13.975 3.561,4.662 7.12,9.322 10.625,13.912 3.492,4.598 6.999,9.07 10.354,13.428 6.734,8.695 13.069,16.773 18.544,23.664 0.079,0.1 0.151,0.191 0.229,0.289 5.354,6.773 9.922,12.35 13.082,16.303 1.604,2.006 2.9,3.551 3.77,4.617 0.875,1.064 1.339,1.631 1.339,1.631 0,0 -0.421,-0.604 -1.211,-1.729 -0.792,-1.125 -1.932,-2.791 -3.433,-4.873 -1.867,-2.592 -4.208,-5.898 -6.959,-9.74 -1.668,-2.33 -3.486,-4.855 -5.445,-7.539 -5.166,-7.125 -11.245,-15.399 -17.811,-24.223 -3.295,-4.402 -6.661,-8.98 -10.152,-13.582 -3.478,-4.607 -7.011,-9.291 -10.545,-13.97 -3.56,-4.663 -7.121,-9.325 -10.626,-13.913 m 228.961,88.055 c -0.579,-0.553 -1.566,-0.535 -2.122,0.047 l -0.703,0.728 c -0.576,0.594 -0.561,1.545 0.031,2.122 0.282,0.273 0.654,0.423 1.046,0.423 0.409,0 0.791,-0.162 1.075,-0.455 l 0.718,-0.744 c 0.277,-0.289 0.425,-0.668 0.417,-1.068 -0.009,-0.403 -0.173,-0.776 -0.462,-1.053 m 4.28,-2.361 c 0.272,-0.293 0.414,-0.676 0.398,-1.076 -0.015,-0.401 -0.185,-0.77 -0.479,-1.043 -0.59,-0.545 -1.575,-0.506 -2.122,0.084 l -0.69,0.742 c -0.565,0.603 -0.533,1.554 0.071,2.119 0.279,0.262 0.643,0.404 1.025,0.404 0.42,0 0.809,-0.168 1.094,-0.474 z m 4.151,-4.563 c 0.266,-0.299 0.4,-0.683 0.377,-1.084 -0.023,-0.4 -0.2,-0.767 -0.499,-1.033 -0.594,-0.531 -1.587,-0.475 -2.119,0.123 l -0.678,0.758 c -0.267,0.297 -0.403,0.682 -0.381,1.082 0.022,0.4 0.197,0.768 0.496,1.035 0.276,0.246 0.631,0.385 1,0.385 0.426,0 0.834,-0.182 1.116,-0.496 z m 4.052,-4.652 c 0.536,-0.631 0.459,-1.578 -0.171,-2.115 -0.606,-0.516 -1.598,-0.438 -2.115,0.172 l -0.657,0.769 c -0.538,0.627 -0.466,1.576 0.161,2.115 0.272,0.233 0.619,0.362 0.976,0.362 0.439,0 0.854,-0.192 1.138,-0.522 z m 3.291,-3.953 0.653,-0.811 c 0.518,-0.642 0.416,-1.588 -0.229,-2.107 -0.628,-0.504 -1.605,-0.397 -2.11,0.232 l -0.637,0.785 c -0.523,0.641 -0.426,1.588 0.214,2.112 0.271,0.22 0.599,0.338 0.947,0.338 0.454,0 0.878,-0.202 1.162,-0.549 m 14.797,-22.399 c -0.114,-0.384 -0.372,-0.701 -0.723,-0.89 -0.711,-0.387 -1.653,-0.1 -2.033,0.603 -0.159,0.293 -0.321,0.588 -0.485,0.883 -0.194,0.352 -0.24,0.756 -0.131,1.141 0.111,0.386 0.364,0.705 0.716,0.9 0.225,0.125 0.469,0.19 0.724,0.19 0.546,0 1.049,-0.297 1.314,-0.774 0.169,-0.305 0.336,-0.609 0.5,-0.912 0.19,-0.352 0.232,-0.756 0.118,-1.141 m -3.82,7.401 0.556,-0.877 c 0.439,-0.701 0.226,-1.629 -0.474,-2.069 -0.682,-0.427 -1.642,-0.205 -2.07,0.477 l -0.538,0.852 c -0.216,0.337 -0.287,0.738 -0.201,1.13 0.086,0.391 0.319,0.725 0.657,0.94 0.242,0.154 0.521,0.236 0.806,0.236 0.516,0 0.989,-0.258 1.264,-0.689 m -3.469,5.148 0.594,-0.846 c 0.229,-0.328 0.317,-0.726 0.247,-1.121 -0.071,-0.394 -0.29,-0.738 -0.619,-0.968 -0.655,-0.459 -1.631,-0.282 -2.089,0.373 l -0.582,0.83 c -0.477,0.674 -0.315,1.613 0.359,2.09 0.255,0.179 0.554,0.275 0.864,0.275 0.488,0 0.947,-0.238 1.226,-0.633 m -3.671,4.987 0.623,-0.821 c 0.499,-0.658 0.368,-1.599 -0.29,-2.099 -0.644,-0.487 -1.618,-0.35 -2.103,0.291 l -0.615,0.808 c -0.501,0.658 -0.374,1.602 0.282,2.104 0.265,0.201 0.579,0.306 0.909,0.306 0.474,0 0.909,-0.214 1.194,-0.589 m -24.609,27.65 0.728,-0.729 c 0.583,-0.587 0.58,-1.539 -0.007,-2.123 -0.568,-0.564 -1.554,-0.562 -2.122,0.01 l -0.717,0.717 c -0.284,0.283 -0.44,0.66 -0.44,1.06 -0.001,0.401 0.155,0.778 0.438,1.061 0.283,0.283 0.66,0.441 1.061,0.441 0.4,0 0.777,-0.158 1.059,-0.437 m 13.389,-36.945 c -0.259,0.136 -0.635,0.355 -1.003,0.75 -0.373,0.386 -0.714,0.943 -1.028,1.632 -0.335,0.684 -0.595,1.526 -1.261,2.379 -0.335,0.418 -0.831,0.813 -1.427,1.014 -0.595,0.207 -1.23,0.232 -1.832,0.176 -1.222,-0.117 -2.364,-0.502 -3.538,-0.965 -1.127,-0.445 -2.239,-1.016 -3.364,-1.537 -1.131,-0.535 -2.28,-1.08 -3.429,-1.623 -2.301,-1.092 -4.603,-2.182 -6.761,-3.203 -1.081,-0.512 -2.126,-1.008 -3.116,-1.479 -0.978,-0.482 -1.901,-0.939 -2.754,-1.361 -3.409,-1.692 -5.681,-2.817 -5.681,-2.817 -0.127,-0.064 -0.269,-0.146 -0.39,-0.23 -0.205,-0.145 -0.381,-0.315 -0.538,-0.494 -8.844,16.828 -28.316,35.609 -35.251,42.01 1.2,3.103 3.096,7.429 5.86,12.263 l 29.395,14.592 c -0.274,-7.494 -0.003,-15.834 2.114,-19.799 2.334,-4.365 7.179,-5.123 11.155,-4.892 4.77,-4.604 11.073,-10.932 17.417,-18.018 -0.456,0.406 -0.738,0.635 -0.738,0.635 l 2.702,-2.854 c 1.623,-1.853 3.238,-3.748 4.821,-5.672 1.738,-2.632 3.34,-5.759 4.227,-9.253 4.003,-5.442 3.172,-2.26 3.07,-0.196 0.978,-1.363 1.92,-2.724 2.819,-4.084 -0.39,0.197 -0.78,0.395 -1.195,0.565 -1.076,0.427 -2.231,0.754 -3.439,0.929 -1.204,0.161 -2.452,0.147 -3.75,-0.023 l -0.808,-0.139 -0.203,-0.033 -0.263,-0.055 -0.402,-0.08 -1.612,-0.326 c -9.039,-1.824 -18.075,-3.65 -24.618,-4.971 0.146,0.102 0.286,0.2 0.435,0.303 0.899,0.604 1.847,1.242 2.827,1.901 1.965,1.32 4.061,2.73 6.156,4.136 1.05,0.707 2.1,1.412 3.134,2.108 1.048,0.691 2.03,1.4 3.039,1.984 0.958,0.559 1.961,1.061 2.89,1.289 0.948,0.252 1.754,0.125 2.356,-0.447 0.611,-0.563 1.03,-1.36 1.465,-2.004 0.428,-0.66 0.885,-1.205 1.341,-1.555 0.452,-0.355 0.872,-0.521 1.152,-0.621 0.289,-0.074 0.443,-0.115 0.443,-0.115 0,0 -0.145,0.062 -0.417,0.18 m -46.16,0.425 c 0.194,0.135 0.419,0.207 0.654,0.207 0.37,0 0.715,-0.179 0.928,-0.478 l 0.449,-0.639 c 0.174,-0.25 0.241,-0.551 0.187,-0.849 -0.053,-0.299 -0.219,-0.559 -0.468,-0.735 -0.495,-0.347 -1.235,-0.211 -1.582,0.283 l -0.439,0.629 c -0.362,0.51 -0.241,1.221 0.271,1.582 m -12.501,16.34 c -0.012,-0.304 -0.139,-0.584 -0.363,-0.791 -0.446,-0.412 -1.192,-0.383 -1.607,0.063 l -0.522,0.562 c -0.427,0.457 -0.403,1.178 0.056,1.606 0.211,0.197 0.485,0.306 0.774,0.306 0.317,0 0.612,-0.129 0.828,-0.359 l 0.532,-0.572 c 0.207,-0.223 0.313,-0.512 0.302,-0.815 m 2.748,-4.244 c -0.449,-0.402 -1.201,-0.357 -1.604,0.094 l -0.512,0.574 c -0.203,0.225 -0.307,0.516 -0.289,0.818 0.016,0.305 0.148,0.582 0.375,0.786 0.209,0.185 0.477,0.289 0.757,0.289 0.323,0 0.632,-0.137 0.845,-0.375 l 0.52,-0.582 c 0.203,-0.227 0.304,-0.518 0.287,-0.821 -0.018,-0.302 -0.152,-0.582 -0.379,-0.783 m 7.216,-10.582 -0.465,0.613 c -0.381,0.498 -0.284,1.211 0.214,1.59 0.198,0.153 0.439,0.235 0.687,0.235 0.359,0 0.688,-0.165 0.903,-0.448 l 0.472,-0.621 c 0.379,-0.498 0.279,-1.211 -0.219,-1.59 -0.488,-0.369 -1.225,-0.263 -1.592,0.221 m -3.161,5.83 c 0.205,0.168 0.453,0.256 0.718,0.256 0.342,0 0.663,-0.152 0.879,-0.414 l 0.494,-0.613 c 0.392,-0.489 0.315,-1.203 -0.173,-1.596 -0.476,-0.381 -1.216,-0.301 -1.598,0.176 l -0.482,0.593 c -0.396,0.487 -0.323,1.204 0.162,1.598 m -1.024,1.233 c -0.459,-0.391 -1.209,-0.331 -1.602,0.13 l -0.497,0.582 c -0.407,0.475 -0.353,1.194 0.122,1.602 0.206,0.176 0.469,0.273 0.739,0.273 0.333,0 0.648,-0.144 0.863,-0.394 l 0.503,-0.592 c 0.407,-0.476 0.349,-1.195 -0.128,-1.601 m 13.394,-21.086 c 0.107,0.283 0.32,0.507 0.595,0.63 0.149,0.067 0.305,0.1 0.466,0.1 0.375,0 0.711,-0.191 0.921,-0.49 -0.085,-0.311 -0.121,-0.633 -0.125,-0.961 -0.134,0.086 -0.269,0.174 -0.419,0.238 -0.48,0.213 -0.98,0.297 -1.472,0.283 0.013,0.067 0.011,0.133 0.034,0.2 m 0.428,2.74 c -0.087,-0.291 -0.281,-0.531 -0.548,-0.676 -0.538,-0.293 -1.251,-0.074 -1.539,0.459 -0.12,0.221 -0.241,0.443 -0.366,0.668 -0.148,0.266 -0.183,0.572 -0.099,0.863 0.083,0.291 0.274,0.534 0.541,0.682 0.17,0.094 0.355,0.143 0.548,0.143 0.413,0 0.794,-0.225 0.995,-0.586 0.128,-0.231 0.254,-0.461 0.378,-0.69 0.144,-0.265 0.176,-0.572 0.09,-0.863 m -24.749,28.746 -0.532,0.551 c -0.436,0.449 -0.424,1.17 0.024,1.605 0.213,0.207 0.495,0.321 0.791,0.321 0.31,0 0.601,-0.124 0.813,-0.344 l 0.543,-0.563 c 0.211,-0.218 0.325,-0.506 0.317,-0.81 -0.006,-0.303 -0.131,-0.586 -0.35,-0.795 -0.437,-0.42 -1.183,-0.406 -1.606,0.035 m -7.111,8.701 c 0.216,0.223 0.507,0.346 0.817,0.346 0.297,0 0.576,-0.113 0.788,-0.319 l 0.558,-0.541 c 0.449,-0.437 0.46,-1.158 0.025,-1.605 -0.423,-0.434 -1.17,-0.447 -1.608,-0.023 l -0.553,0.537 c -0.218,0.211 -0.341,0.494 -0.346,0.797 -0.005,0.302 0.108,0.589 0.319,0.808 m -2.139,1.254 c 0,0 0.182,0.656 0.564,1.799 l 0.363,-0.34 c 0.457,-0.43 0.479,-1.15 0.05,-1.607 -0.416,-0.44 -1.161,-0.465 -1.606,-0.049 l -0.007,0.008 c 0.404,0.111 0.636,0.189 0.636,0.189 m 6.012,-6.648 -0.543,0.543 c -0.214,0.214 -0.332,0.5 -0.333,0.802 0,0.303 0.119,0.588 0.332,0.803 0.214,0.215 0.5,0.334 0.804,0.334 0.303,0 0.588,-0.119 0.801,-0.332 l 0.551,-0.551 c 0.442,-0.443 0.44,-1.164 -0.005,-1.605 -0.43,-0.428 -1.177,-0.428 -1.607,0.006 m 23.032,-26.821 c 0.064,0.295 0.24,0.549 0.496,0.711 0.183,0.117 0.394,0.18 0.611,0.18 0.389,0 0.748,-0.195 0.956,-0.522 l 0.421,-0.664 c 0.332,-0.531 0.171,-1.234 -0.359,-1.566 -0.516,-0.322 -1.242,-0.154 -1.567,0.361 l -0.407,0.645 c -0.164,0.256 -0.218,0.558 -0.151,0.855 m -53.979,136.616 25.307,22.957 23.931,21.712 c -0.094,0.06 -0.193,0.107 -0.287,0.172 -0.748,0.478 -1.432,1.096 -2.047,1.778 -0.615,0.689 -1.101,1.499 -1.494,2.345 -0.347,0.861 -0.614,1.762 -0.707,2.668 -0.075,0.452 -0.05,0.899 -0.074,1.35 0.024,0.441 0.04,0.887 0.093,1.322 0.216,1.739 0.739,3.362 1.388,4.887 0.336,0.757 0.691,1.5 1.086,2.215 0.386,0.72 0.807,1.414 1.238,2.099 0.867,1.365 1.838,2.644 2.834,3.891 0.399,0.496 0.812,0.979 1.226,1.46 -0.286,0.024 -0.573,0.05 -0.86,0.091 l -39.444,-34.807 -37.426,-33.024 -6.997,-6.174 -9.622,-8.491 9.747,8.882 13.288,12.108 30.126,27.453 37.975,34.603 c -1.216,0.421 -2.387,1.076 -3.352,1.985 -1.297,1.214 -2.142,2.818 -2.556,4.429 -0.426,1.619 -0.523,3.252 -0.456,4.844 0.07,1.7 0.323,3.36 0.685,4.987 l -9.283,-8.192 -54.09,-47.73 -27.946,-24.659 28.448,25.922 52.248,47.609 11.552,10.528 c 0.075,0.24 0.147,0.483 0.224,0.724 0.976,2.942 2.175,5.795 3.61,8.516 -0.554,-1.433 -1.025,-2.895 -1.474,-4.357 -0.449,-1.463 -0.846,-2.941 -1.188,-4.424 -0.066,-0.283 -0.118,-0.57 -0.179,-0.856 l 0.693,-0.773 -1.034,-0.914 c -0.384,-2.134 -0.614,-4.283 -0.579,-6.397 0.031,-1.474 0.224,-2.933 0.67,-4.261 0.446,-1.326 1.142,-2.512 2.14,-3.353 0.99,-0.844 2.242,-1.37 3.603,-1.599 1.354,-0.242 2.796,-0.226 4.235,-0.103 l 3.154,0.267 -2.085,-2.431 c -0.997,-1.162 -1.974,-2.339 -2.887,-3.554 -0.916,-1.213 -1.772,-2.462 -2.562,-3.733 -0.391,-0.638 -0.773,-1.282 -1.115,-1.938 -0.353,-0.652 -0.66,-1.318 -0.951,-1.988 -0.556,-1.344 -0.971,-2.723 -1.124,-4.08 -0.038,-0.34 -0.042,-0.675 -0.063,-1.01 0.03,-0.324 0.008,-0.663 0.061,-0.978 0.055,-0.651 0.241,-1.254 0.459,-1.84 0.264,-0.565 0.572,-1.113 0.993,-1.59 0.424,-0.475 0.894,-0.925 1.457,-1.289 0.543,-0.385 1.157,-0.697 1.794,-0.973 0.645,-0.264 1.311,-0.499 2.01,-0.666 0.689,-0.191 1.405,-0.322 2.125,-0.435 0.722,-0.104 1.456,-0.168 2.194,-0.211 l 2.889,-0.17 -1.918,-2.094 c -1.89,-2.064 -3.456,-4.515 -4.782,-7.061 -1.311,-2.56 -2.329,-5.284 -2.913,-8.083 -0.281,-1.401 -0.434,-2.825 -0.376,-4.235 0.042,-1.406 0.298,-2.812 0.894,-4.078 0.587,-1.265 1.505,-2.39 2.695,-3.207 1.184,-0.82 2.573,-1.387 4.02,-1.73 -1.475,0.152 -2.977,0.488 -4.329,1.227 -1.355,0.722 -2.55,1.834 -3.335,3.208 -0.029,0.049 -0.048,0.102 -0.076,0.15 l -36.209,-31.919 -38.09,-33.574 -7.744,-6.826 -0.45,-0.397 0.48,0.44 7.519,6.871 37.43,34.214 36.226,33.112 c -0.25,0.781 -0.42,1.584 -0.522,2.389 -0.179,1.554 -0.127,3.115 0.065,4.646 0.379,3.07 1.34,6.014 2.582,8.813 0.896,2.013 1.979,3.944 3.271,5.761 -0.781,0.097 -1.563,0.217 -2.342,0.405 -0.817,0.187 -1.628,0.458 -2.427,0.778 -0.055,0.022 -0.11,0.052 -0.164,0.076 l -24.668,-21.696 -25.712,-22.612 -42.411,-37.302 -3.7,-3.252 3.732,3.386 z m 293.653,116.533 c 0.779,-0.942 1.722,-2.091 2.769,-3.432 1.055,-1.336 2.258,-2.838 3.522,-4.51 1.242,-1.688 2.587,-3.516 4.011,-5.449 1.43,-1.931 2.889,-4.002 4.356,-6.172 1.476,-2.164 3.004,-4.399 4.554,-6.67 1.487,-2.315 2.997,-4.664 4.508,-7.016 1.481,-2.369 3,-4.715 4.422,-7.068 1.422,-2.355 2.77,-4.703 4.102,-6.957 1.312,-2.266 2.582,-4.455 3.785,-6.533 1.191,-2.084 2.232,-4.103 3.222,-5.948 1.981,-3.693 3.553,-6.812 4.688,-8.974 1.119,-2.172 1.732,-3.428 1.732,-3.428 0,0 -0.769,1.169 -2.07,3.237 -1.285,2.077 -3.172,5.015 -5.342,8.59 -1.09,1.786 -2.269,3.72 -3.515,5.767 -1.276,2.027 -2.619,4.166 -4.008,6.379 -1.373,2.224 -2.818,4.504 -4.236,6.851 -1.438,2.336 -2.975,4.66 -4.467,7.012 -1.487,2.357 -2.973,4.713 -4.436,7.032 -1.498,2.297 -2.972,4.558 -4.396,6.746 -1.424,2.191 -2.776,4.325 -4.121,6.304 -1.321,1.999 -2.569,3.889 -3.721,5.633 -1.168,1.735 -2.238,3.325 -3.188,4.734 -0.935,1.421 -1.779,2.637 -2.48,3.637 -0.691,1.007 -1.234,1.798 -1.606,2.338 -0.375,0.537 -0.574,0.823 -0.574,0.823 0,0 0.938,-1.034 2.489,-2.926 m -14.995,-30.836 c 6,6.333 50.666,-38.334 65.666,-48.334 0,20.834 -49,86.667 -49,86.667 0,0 3.25,13.917 -10.75,32.417 -18.769,24.803 -56.448,21.651 -81.819,16.789 h -59.181 l 4.084,-8.206 -53.334,2.417 10.667,-9.917 -67.351,-0.167 18.72,-10.179 C 250.463,474.893 142.242,404.797 114.149,350.062 c 7.559,1.054 20.137,6.966 35.338,15.667 -22.237,-24.111 -40.023,-45.908 -43.316,-57.027 8.255,1.641 19.433,8.096 32.141,17.476 -23.186,-26.564 -42.006,-50.613 -45.413,-62.115 8.382,2.086 19.959,9.096 33.178,19.02 -25.728,-28.752 -47.282,-55.432 -50.928,-67.74 9.011,2.73 24.67,13.943 43.019,29.125 -32.745,-36.535 -61.923,-71.797 -66.019,-85.625 7.868,2.383 21.525,12.189 38.017,25.99 C 58.688,142.351 29.33,98.552 24.649,77.343 39.212,79.583 63.432,101.776 89.274,130.31 78.414,109.171 70.665,90.421 68.835,77.343 c 12.967,6.777 35.728,36.676 59.591,72.07 -10.648,-23.713 -18.089,-45.469 -19.279,-61.728 22.227,17.5 60.816,93.843 89.268,153.769 2.803,1.988 5.657,3.858 8.551,5.615 l 3.263,-5.726 18.202,14.033 c 0.283,-3.734 0.884,-7.022 1.995,-9.102 2.721,-5.091 8.86,-5.277 13.052,-4.711 3.287,-3.033 10.136,-9.541 17.107,-17.298 -0.177,0.115 -0.287,0.177 -0.287,0.177 l 1.758,-1.832 c 1.695,-1.927 3.382,-3.918 5.011,-5.941 0.925,-1.922 1.655,-4.215 1.916,-6.934 3.981,-5.412 1.549,-1.072 3.325,-0.023 2.494,-3.574 4.632,-7.129 6.166,-10.5 -0.077,-0.123 -0.157,-0.242 -0.216,-0.377 l -3.378,-7.629 -1.645,0.158 c -1.237,0.112 -2.476,0.209 -3.714,0.293 -2.48,0.164 -4.961,0.27 -7.449,0.281 -2.487,0.004 -4.983,-0.068 -7.466,-0.39 -0.621,-0.09 -1.238,-0.182 -1.853,-0.317 -0.307,-0.056 -0.613,-0.132 -0.917,-0.216 -0.305,-0.075 -0.607,-0.168 -0.903,-0.276 -0.6,-0.191 -1.179,-0.474 -1.711,-0.81 -0.514,-0.373 -0.973,-0.85 -1.16,-1.444 0.289,0.555 0.792,0.907 1.317,1.166 0.552,0.225 1.118,0.391 1.71,0.473 0.293,0.051 0.587,0.09 0.887,0.107 0.296,0.03 0.593,0.051 0.895,0.053 0.596,0.028 1.198,0.01 1.797,-0.008 2.401,-0.105 4.797,-0.451 7.177,-0.871 2.381,-0.427 4.745,-0.947 7.097,-1.519 1.176,-0.289 2.349,-0.59 3.516,-0.907 l 1.747,-0.48 1.716,-0.502 1.598,-0.467 1.157,1.729 4.003,5.978 c 0.436,-0.205 0.918,-0.33 1.431,-0.332 h 0.022 c 0,0 1.069,-0.002 2.939,-0.009 1.876,-0.02 4.556,-0.049 7.771,-0.084 6.43,-0.102 15.014,-0.272 23.55,-0.768 2.133,-0.127 4.262,-0.277 6.343,-0.477 0.934,-0.093 1.865,-0.193 2.777,-0.312 0.836,-0.188 1.672,-0.373 2.504,-0.576 0.833,-0.203 1.663,-0.424 2.492,-0.641 0.251,-0.115 0.497,-0.23 0.724,-0.348 0.831,-0.406 1.668,-0.851 2.463,-1.294 1.599,-0.891 3.094,-1.79 4.474,-2.622 2.757,-1.671 5.077,-3.062 6.76,-3.927 0.843,-0.43 1.522,-0.733 1.992,-0.92 0.475,-0.17 0.729,-0.262 0.729,-0.262 0,0 -0.241,0.117 -0.693,0.34 -0.445,0.234 -1.081,0.607 -1.865,1.119 -1.566,1.033 -3.7,2.654 -6.262,4.621 -0.694,0.529 -1.428,1.084 -2.189,1.652 l 1.108,1.657 1.441,2.152 c 0.823,-1.019 2.064,-1.685 3.475,-1.691 h 0.029 c 0,0 1.412,-0.006 3.883,-0.016 2.478,-0.025 6.018,-0.064 10.265,-0.109 8.495,-0.135 19.834,-0.36 31.111,-1.014 2.816,-0.17 5.629,-0.367 8.379,-0.631 2.733,-0.273 5.467,-0.574 7.878,-1.137 0.296,-0.072 0.589,-0.148 0.85,-0.234 0.136,-0.043 0.265,-0.086 0.376,-0.133 l 0.158,-0.056 0.223,-0.102 c 0.589,-0.275 1.204,-0.539 1.739,-0.816 1.099,-0.538 2.203,-1.125 3.255,-1.713 2.111,-1.174 4.086,-2.362 5.91,-3.459 3.641,-2.211 6.706,-4.049 8.929,-5.192 1.115,-0.566 2.011,-0.966 2.632,-1.213 0.627,-0.226 0.963,-0.347 0.963,-0.347 0,0 -0.318,0.156 -0.916,0.449 -0.588,0.311 -1.428,0.803 -2.464,1.48 -2.068,1.366 -4.888,3.504 -8.272,6.102 -1.697,1.295 -3.542,2.697 -5.556,4.127 -1.01,0.717 -2.049,1.428 -3.185,2.145 -0.566,0.375 -1.114,0.683 -1.679,1.025 l -0.211,0.125 -0.287,0.148 c -0.186,0.098 -0.363,0.176 -0.536,0.248 -0.353,0.155 -0.693,0.28 -1.034,0.399 -2.709,0.906 -5.427,1.451 -8.215,2.006 -2.783,0.535 -5.608,1.006 -8.435,1.447 -11.29,1.736 -22.598,3.037 -31.095,3.98 8.392,2.663 22.311,7.079 36.236,11.495 l 2.07,0.656 0.518,0.164 0.129,0.041 0.064,0.021 c -0.025,-0.005 0.102,0.026 -0.048,-0.009 l 0.033,0.009 0.261,0.073 1.042,0.295 c 1.125,0.259 2.358,0.429 3.609,0.402 1.241,-0.045 2.483,-0.248 3.703,-0.584 1.219,-0.348 2.406,-0.846 3.558,-1.404 2.297,-1.147 4.423,-2.598 6.398,-4.061 1.978,-1.459 3.818,-2.935 5.562,-4.252 1.74,-1.322 3.383,-2.494 4.916,-3.422 1.528,-0.929 2.949,-1.603 4.16,-2.029 0.594,-0.24 1.162,-0.356 1.635,-0.498 0.489,-0.09 0.899,-0.186 1.238,-0.229 0.677,-0.064 1.038,-0.099 1.038,-0.099 0,0 -0.353,0.072 -1.017,0.211 -0.328,0.078 -0.724,0.217 -1.19,0.353 -0.45,0.192 -0.984,0.36 -1.538,0.658 -1.129,0.539 -2.426,1.336 -3.807,2.397 -1.385,1.057 -2.857,2.367 -4.426,3.85 -1.573,1.482 -3.237,3.142 -5.093,4.849 -1.853,1.705 -3.898,3.469 -6.311,5.022 -1.215,0.761 -2.512,1.484 -3.93,2.06 -1.421,0.567 -2.946,0.998 -4.542,1.231 -1.591,0.211 -3.24,0.193 -4.954,-0.034 l -1.068,-0.179 -0.268,-0.045 -0.346,-0.072 -0.532,-0.108 -2.129,-0.43 c -11.941,-2.412 -23.877,-4.822 -32.521,-6.566 0.193,0.135 0.377,0.262 0.574,0.4 1.187,0.797 2.44,1.639 3.735,2.51 2.595,1.744 5.364,3.606 8.132,5.467 1.388,0.932 2.774,1.863 4.14,2.781 1.384,0.914 2.681,1.85 4.015,2.623 1.266,0.739 2.591,1.401 3.818,1.701 1.252,0.334 2.316,0.166 3.112,-0.589 0.808,-0.745 1.36,-1.797 1.935,-2.649 0.566,-0.871 1.169,-1.592 1.771,-2.053 0.597,-0.47 1.152,-0.689 1.523,-0.82 0.381,-0.099 0.584,-0.152 0.584,-0.152 0,0 -0.191,0.082 -0.55,0.236 -0.343,0.182 -0.84,0.471 -1.325,0.99 -0.493,0.512 -0.943,1.248 -1.359,2.159 -0.441,0.904 -0.786,2.015 -1.665,3.142 -0.442,0.553 -1.098,1.074 -1.886,1.34 -0.785,0.271 -1.624,0.305 -2.42,0.23 -1.614,-0.154 -3.122,-0.662 -4.673,-1.273 -1.489,-0.588 -2.958,-1.344 -4.444,-2.031 -1.494,-0.707 -3.012,-1.426 -4.529,-2.145 -3.041,-1.441 -6.082,-2.881 -8.932,-4.23 -1.428,-0.678 -2.808,-1.332 -4.117,-1.953 -1.291,-0.639 -2.511,-1.243 -3.637,-1.799 l -7.505,-3.721 c -0.169,-0.086 -0.355,-0.193 -0.515,-0.305 -0.271,-0.189 -0.5,-0.412 -0.709,-0.65 -9.678,18.414 -29.001,38.609 -40.558,49.807 3.504,8.644 11.652,24.623 27.189,35.949 -1.46,-3.84 -4.553,-13.313 0.635,-12.912 9.667,3 35.5,31.5 35.5,31.5 0,0 -8.5,-17.167 0,-18.334 18.834,10.834 33.194,41.001 33.194,41.001 0,0 -1.735,-12.667 6.181,-7.167 15.75,12.5 31.125,67.166 31.458,75.166 0.333,8 33.115,29.534 44.001,21.609 21.666,-15.775 53.334,-29.942 53.334,-29.942 0,0 -42.334,31.333 -36.334,37.667"
           style="fill:#110f0d;fill-opacity:1;fill-rule:nonzero;stroke:none"
           id="path1215"
           inkscape:connector-curvature="0" /></g></g></g></svg>